<svg width="61" height="60" viewBox="0 0 61 60" fill="none" xmlns="http://www.w3.org/2000/svg">
<path d="M30.3335 17.9825C23.6831 17.9825 18.316 23.3496 18.316 30C18.316 36.6504 23.6831 42.0176 30.3335 42.0176C36.9839 42.0176 42.3511 36.6504 42.3511 30C42.3511 23.3496 36.9839 17.9825 30.3335 17.9825ZM30.3335 37.8106C26.0327 37.8106 22.523 34.3008 22.523 30C22.523 25.6993 26.0327 22.1895 30.3335 22.1895C34.6343 22.1895 38.1441 25.6993 38.1441 30C38.1441 34.3008 34.6343 37.8106 30.3335 37.8106ZM42.8433 14.6895C41.2906 14.6895 40.0367 15.9434 40.0367 17.4961C40.0367 19.0489 41.2906 20.3028 42.8433 20.3028C44.396 20.3028 45.6499 19.0547 45.6499 17.4961C45.6504 17.1274 45.5781 16.7623 45.4372 16.4215C45.2964 16.0808 45.0896 15.7712 44.8289 15.5105C44.5682 15.2498 44.2586 15.0431 43.9179 14.9022C43.5772 14.7613 43.212 14.689 42.8433 14.6895V14.6895ZM53.7593 30C53.7593 26.7657 53.7886 23.5606 53.607 20.3321C53.4253 16.5821 52.5699 13.2539 49.8277 10.5118C47.0796 7.76371 43.7574 6.9141 40.0074 6.73246C36.773 6.55082 33.5679 6.58011 30.3394 6.58011C27.105 6.58011 23.8999 6.55082 20.6714 6.73246C16.9214 6.9141 13.5933 7.76956 10.8511 10.5118C8.10306 13.2598 7.25345 16.5821 7.07181 20.3321C6.89017 23.5664 6.91947 26.7715 6.91947 30C6.91947 33.2286 6.89017 36.4395 7.07181 39.668C7.25345 43.418 8.10892 46.7461 10.8511 49.4883C13.5992 52.2364 16.9214 53.086 20.6714 53.2676C23.9058 53.4493 27.1109 53.42 30.3394 53.42C33.5738 53.42 36.7788 53.4493 40.0074 53.2676C43.7574 53.086 47.0855 52.2305 49.8277 49.4883C52.5757 46.7403 53.4253 43.418 53.607 39.668C53.7945 36.4395 53.7593 33.2344 53.7593 30V30ZM48.6031 43.8164C48.1753 44.8828 47.6597 45.6797 46.8335 46.5C46.0074 47.3262 45.2163 47.8418 44.1499 48.2696C41.0679 49.4942 33.7495 49.2188 30.3335 49.2188C26.9175 49.2188 19.5933 49.4942 16.5113 48.2754C15.4449 47.8477 14.648 47.3321 13.8277 46.5059C13.0015 45.6797 12.4859 44.8887 12.0581 43.8223C10.8394 40.7344 11.1148 33.4161 11.1148 30C11.1148 26.584 10.8394 19.2598 12.0581 16.1778C12.4859 15.1114 13.0015 14.3145 13.8277 13.4942C14.6538 12.6739 15.4449 12.1524 16.5113 11.7246C19.5933 10.5059 26.9175 10.7813 30.3335 10.7813C33.7495 10.7813 41.0738 10.5059 44.1558 11.7246C45.2222 12.1524 46.0191 12.668 46.8394 13.4942C47.6656 14.3203 48.1812 15.1114 48.6089 16.1778C49.8277 19.2598 49.5523 26.584 49.5523 30C49.5523 33.4161 49.8277 40.7344 48.6031 43.8164Z" fill="#222222"/>
</svg>
