<svg width="194" height="38" viewBox="0 0 194 38" fill="none" xmlns="http://www.w3.org/2000/svg">
<path d="M-0.64 37.016V36.408C0.32 36.3867 1.12 36.152 1.76 35.704C2.42133 35.256 2.912 34.5093 3.232 33.464C3.57333 32.44 3.744 31.064 3.744 29.336V11.736C3.744 10.9467 3.68 10.3707 3.552 10.008C3.424 9.624 3.168 9.368 2.784 9.24C2.42133 9.09067 1.87733 9.00533 1.152 8.984V8.344C1.6 8.36533 2.18667 8.38667 2.912 8.408C3.63733 8.42933 4.39467 8.44 5.184 8.44C5.97333 8.44 6.73067 8.42933 7.456 8.408C8.20267 8.38667 8.82133 8.36533 9.312 8.344V8.984C8.58667 9.00533 8.032 9.09067 7.648 9.24C7.28533 9.368 7.04 9.624 6.912 10.008C6.784 10.3707 6.72 10.9467 6.72 11.736V23.448C6.72 24.3227 6.70933 25.272 6.688 26.296C6.66667 27.32 6.61333 28.312 6.528 29.272C6.464 30.232 6.34667 31.0747 6.176 31.8C5.81333 33.2933 5.04533 34.5307 3.872 35.512C2.72 36.5147 1.216 37.016 -0.64 37.016ZM25.6123 8.184L33.4203 28.312C33.7403 29.1227 34.1029 29.6667 34.5083 29.944C34.9136 30.2 35.2869 30.3387 35.6283 30.36V31C35.2016 30.9573 34.6789 30.936 34.0603 30.936C33.4416 30.9147 32.8229 30.904 32.2043 30.904C31.3723 30.904 30.5936 30.9147 29.8683 30.936C29.1429 30.936 28.5563 30.9573 28.1083 31V30.36C29.1963 30.3173 29.8896 30.136 30.1883 29.816C30.4869 29.4747 30.4229 28.76 29.9963 27.672L24.0443 11.768L24.5563 11.352L18.9883 25.816C18.6469 26.6693 18.4442 27.3947 18.3802 27.992C18.3163 28.568 18.3696 29.0267 18.5403 29.368C18.7323 29.7093 19.0416 29.9547 19.4683 30.104C19.9163 30.2533 20.4709 30.3387 21.1323 30.36V31C20.5349 30.9573 19.9056 30.936 19.2443 30.936C18.6043 30.9147 18.0069 30.904 17.4523 30.904C16.9189 30.904 16.4602 30.9147 16.0762 30.936C15.7136 30.936 15.3722 30.9573 15.0522 31V30.36C15.4789 30.2533 15.9162 30.008 16.3642 29.624C16.8122 29.2187 17.2176 28.536 17.5803 27.576L25.1003 8.184C25.1856 8.184 25.2709 8.184 25.3563 8.184C25.4416 8.184 25.5269 8.184 25.6123 8.184ZM29.5163 21.784V22.424H19.9802L20.3003 21.784H29.5163ZM59.3427 8.344V8.984C58.9374 9.06933 58.5001 9.31467 58.0307 9.72C57.5827 10.1253 57.1774 10.808 56.8147 11.768L49.2947 31.16C49.2521 31.16 49.2094 31.16 49.1667 31.16C49.1241 31.16 49.0814 31.16 49.0387 31.16C48.9961 31.16 48.9534 31.16 48.9107 31.16C48.8681 31.16 48.8254 31.16 48.7827 31.16L40.9747 11.032C40.6547 10.2213 40.2921 9.688 39.8867 9.432C39.4814 9.15467 39.1081 9.00533 38.7667 8.984V8.344C39.1934 8.36533 39.7161 8.38667 40.3347 8.408C40.9747 8.42933 41.5934 8.44 42.1907 8.44C43.0227 8.44 43.8014 8.42933 44.5267 8.408C45.2521 8.38667 45.8387 8.36533 46.2867 8.344V8.984C45.5614 9.00533 45.0067 9.09067 44.6227 9.24C44.2601 9.38933 44.0574 9.656 44.0147 10.04C43.9934 10.4027 44.1214 10.9467 44.3987 11.672L50.3507 27.448L49.8387 27.992L55.4067 13.528C55.8547 12.376 56.0681 11.48 56.0467 10.84C56.0254 10.1787 55.7801 9.70933 55.3107 9.432C54.8414 9.15467 54.1587 9.00533 53.2627 8.984V8.344C53.8814 8.36533 54.5107 8.38667 55.1507 8.408C55.7907 8.42933 56.3881 8.44 56.9427 8.44C57.4974 8.44 57.9561 8.42933 58.3187 8.408C58.6814 8.38667 59.0227 8.36533 59.3427 8.344ZM72.5085 8.184L80.3165 28.312C80.6365 29.1227 80.9992 29.6667 81.4045 29.944C81.8098 30.2 82.1832 30.3387 82.5245 30.36V31C82.0978 30.9573 81.5752 30.936 80.9565 30.936C80.3378 30.9147 79.7192 30.904 79.1005 30.904C78.2685 30.904 77.4898 30.9147 76.7645 30.936C76.0392 30.936 75.4525 30.9573 75.0045 31V30.36C76.0925 30.3173 76.7858 30.136 77.0845 29.816C77.3832 29.4747 77.3192 28.76 76.8925 27.672L70.9405 11.768L71.4525 11.352L65.8845 25.816C65.5432 26.6693 65.3405 27.3947 65.2765 27.992C65.2125 28.568 65.2658 29.0267 65.4365 29.368C65.6285 29.7093 65.9378 29.9547 66.3645 30.104C66.8125 30.2533 67.3672 30.3387 68.0285 30.36V31C67.4312 30.9573 66.8018 30.936 66.1405 30.936C65.5005 30.9147 64.9032 30.904 64.3485 30.904C63.8152 30.904 63.3565 30.9147 62.9725 30.936C62.6098 30.936 62.2685 30.9573 61.9485 31V30.36C62.3752 30.2533 62.8125 30.008 63.2605 29.624C63.7085 29.2187 64.1138 28.536 64.4765 27.576L71.9965 8.184C72.0818 8.184 72.1672 8.184 72.2525 8.184C72.3378 8.184 72.4232 8.184 72.5085 8.184ZM76.4125 21.784V22.424H66.8765L67.1965 21.784H76.4125ZM112.409 7.896C113.817 7.896 114.969 8.10933 115.865 8.536C116.783 8.94133 117.593 9.42133 118.297 9.976C118.724 10.296 119.044 10.3387 119.257 10.104C119.492 9.848 119.652 9.26133 119.737 8.344H120.473C120.431 9.13333 120.399 10.0933 120.377 11.224C120.356 12.3547 120.345 13.848 120.345 15.704H119.609C119.46 14.7867 119.321 14.0613 119.193 13.528C119.065 12.9733 118.905 12.504 118.713 12.12C118.543 11.736 118.308 11.352 118.009 10.968C117.348 10.0933 116.516 9.464 115.513 9.08C114.511 8.67466 113.455 8.472 112.345 8.472C111.3 8.472 110.351 8.73867 109.497 9.272C108.665 9.784 107.94 10.5307 107.321 11.512C106.724 12.4933 106.255 13.6773 105.913 15.064C105.593 16.4507 105.433 18.008 105.433 19.736C105.433 21.528 105.615 23.1173 105.977 24.504C106.34 25.8693 106.841 27.0213 107.481 27.96C108.143 28.8987 108.911 29.6133 109.785 30.104C110.681 30.5733 111.641 30.808 112.665 30.808C113.625 30.808 114.628 30.616 115.673 30.232C116.719 29.848 117.54 29.2293 118.137 28.376C118.607 27.7573 118.927 27.0853 119.097 26.36C119.289 25.6347 119.46 24.6213 119.609 23.32H120.345C120.345 25.2613 120.356 26.8293 120.377 28.024C120.399 29.1973 120.431 30.1893 120.473 31H119.737C119.652 30.0827 119.503 29.5067 119.289 29.272C119.097 29.0373 118.767 29.0693 118.297 29.368C117.508 29.9227 116.665 30.4133 115.769 30.84C114.895 31.2453 113.764 31.448 112.377 31.448C110.351 31.448 108.569 30.9893 107.033 30.072C105.519 29.1547 104.335 27.832 103.481 26.104C102.649 24.376 102.233 22.296 102.233 19.864C102.233 17.4747 102.671 15.384 103.545 13.592C104.42 11.8 105.615 10.4027 107.129 9.4C108.665 8.39733 110.425 7.896 112.409 7.896ZM138.025 8.184L145.833 28.312C146.153 29.1227 146.515 29.6667 146.921 29.944C147.326 30.2 147.699 30.3387 148.041 30.36V31C147.614 30.9573 147.091 30.936 146.473 30.936C145.854 30.9147 145.235 30.904 144.617 30.904C143.785 30.904 143.006 30.9147 142.281 30.936C141.555 30.936 140.969 30.9573 140.521 31V30.36C141.609 30.3173 142.302 30.136 142.601 29.816C142.899 29.4747 142.835 28.76 142.409 27.672L136.457 11.768L136.969 11.352L131.401 25.816C131.059 26.6693 130.857 27.3947 130.793 27.992C130.729 28.568 130.782 29.0267 130.953 29.368C131.145 29.7093 131.454 29.9547 131.881 30.104C132.329 30.2533 132.883 30.3387 133.545 30.36V31C132.947 30.9573 132.318 30.936 131.657 30.936C131.017 30.9147 130.419 30.904 129.865 30.904C129.331 30.904 128.873 30.9147 128.489 30.936C128.126 30.936 127.785 30.9573 127.465 31V30.36C127.891 30.2533 128.329 30.008 128.777 29.624C129.225 29.2187 129.63 28.536 129.993 27.576L137.513 8.184C137.598 8.184 137.683 8.184 137.769 8.184C137.854 8.184 137.939 8.184 138.025 8.184ZM141.929 21.784V22.424H132.393L132.713 21.784H141.929ZM169.652 8.344C169.567 9.15467 169.503 9.944 169.46 10.712C169.439 11.4587 169.428 12.0347 169.428 12.44C169.428 12.952 169.439 13.432 169.46 13.88C169.481 14.328 169.503 14.7227 169.524 15.064H168.788C168.639 13.5707 168.436 12.3973 168.18 11.544C167.924 10.6693 167.476 10.04 166.836 9.656C166.196 9.272 165.204 9.08 163.86 9.08H161.844C161.119 9.08 160.564 9.144 160.18 9.272C159.817 9.37867 159.572 9.624 159.444 10.008C159.316 10.3707 159.252 10.9467 159.252 11.736V27.608C159.252 28.376 159.327 28.952 159.476 29.336C159.647 29.72 159.967 29.976 160.436 30.104C160.905 30.232 161.588 30.3173 162.484 30.36V31C161.929 30.9573 161.225 30.936 160.372 30.936C159.519 30.9147 158.655 30.904 157.78 30.904C156.948 30.904 156.169 30.9147 155.444 30.936C154.719 30.936 154.132 30.9573 153.684 31V30.36C154.409 30.3173 154.953 30.232 155.316 30.104C155.7 29.976 155.956 29.72 156.084 29.336C156.212 28.952 156.276 28.376 156.276 27.608V11.736C156.276 10.9467 156.212 10.3707 156.084 10.008C155.956 9.624 155.7 9.368 155.316 9.24C154.953 9.09067 154.409 9.00533 153.684 8.984V8.344C154.473 8.36533 155.305 8.38667 156.18 8.408C157.055 8.408 157.919 8.41867 158.772 8.44C159.625 8.44 160.415 8.44 161.14 8.44C161.887 8.44 162.495 8.44 162.964 8.44C163.945 8.44 165.055 8.44 166.292 8.44C167.551 8.41867 168.671 8.38667 169.652 8.344ZM164.692 19.608C164.692 19.608 164.692 19.7147 164.692 19.928C164.692 20.1413 164.692 20.248 164.692 20.248H158.292C158.292 20.248 158.292 20.1413 158.292 19.928C158.292 19.7147 158.292 19.608 158.292 19.608H164.692ZM165.3 15.384C165.215 16.6 165.172 17.528 165.172 18.168C165.193 18.808 165.204 19.3947 165.204 19.928C165.204 20.4613 165.215 21.048 165.236 21.688C165.257 22.328 165.311 23.256 165.396 24.472H164.66C164.575 23.7893 164.468 23.128 164.34 22.488C164.233 21.8267 163.977 21.2933 163.572 20.888C163.188 20.4613 162.527 20.248 161.588 20.248V19.608C162.292 19.608 162.825 19.4693 163.188 19.192C163.572 18.8933 163.849 18.52 164.02 18.072C164.191 17.624 164.308 17.1653 164.372 16.696C164.436 16.2053 164.5 15.768 164.564 15.384H165.3ZM192.991 8.344C192.905 9.09067 192.841 9.816 192.799 10.52C192.777 11.224 192.767 11.7573 192.767 12.12C192.767 12.504 192.777 12.8773 192.799 13.24C192.82 13.5813 192.841 13.8693 192.863 14.104H192.127C191.999 12.8453 191.817 11.8533 191.583 11.128C191.348 10.3813 190.943 9.85867 190.367 9.56C189.812 9.24 188.969 9.08 187.839 9.08H185.183C184.457 9.08 183.903 9.144 183.519 9.272C183.156 9.37867 182.911 9.624 182.783 10.008C182.655 10.3707 182.591 10.9467 182.591 11.736V27.608C182.591 28.376 182.655 28.952 182.783 29.336C182.911 29.72 183.156 29.976 183.519 30.104C183.903 30.2107 184.457 30.264 185.183 30.264H187.519C188.863 30.264 189.876 30.0827 190.559 29.72C191.263 29.3573 191.764 28.7707 192.063 27.96C192.383 27.128 192.617 26.008 192.767 24.6H193.503C193.439 25.176 193.407 25.944 193.407 26.904C193.407 27.3093 193.417 27.896 193.439 28.664C193.481 29.4107 193.545 30.1893 193.631 31C192.543 30.9573 191.316 30.936 189.951 30.936C188.585 30.9147 187.369 30.904 186.303 30.904C185.833 30.904 185.225 30.904 184.479 30.904C183.753 30.904 182.964 30.9147 182.111 30.936C181.257 30.936 180.393 30.9467 179.519 30.968C178.644 30.968 177.812 30.9787 177.023 31V30.36C177.748 30.3173 178.292 30.232 178.655 30.104C179.039 29.976 179.295 29.72 179.423 29.336C179.551 28.952 179.615 28.376 179.615 27.608V11.736C179.615 10.9467 179.551 10.3707 179.423 10.008C179.295 9.624 179.039 9.368 178.655 9.24C178.292 9.09067 177.748 9.00533 177.023 8.984V8.344C177.812 8.36533 178.644 8.38667 179.519 8.408C180.393 8.408 181.257 8.41867 182.111 8.44C182.964 8.44 183.753 8.44 184.479 8.44C185.225 8.44 185.833 8.44 186.303 8.44C187.284 8.44 188.393 8.44 189.631 8.44C190.889 8.41867 192.009 8.38667 192.991 8.344ZM187.487 19.288C187.487 19.288 187.487 19.3947 187.487 19.608C187.487 19.8213 187.487 19.928 187.487 19.928H181.631C181.631 19.928 181.631 19.8213 181.631 19.608C181.631 19.3947 181.631 19.288 181.631 19.288H187.487ZM188.415 15.064C188.329 16.28 188.287 17.208 188.287 17.848C188.308 18.488 188.319 19.0747 188.319 19.608C188.319 20.1413 188.329 20.728 188.351 21.368C188.372 22.008 188.425 22.936 188.511 24.152H187.775C187.689 23.4693 187.583 22.808 187.455 22.168C187.348 21.5067 187.092 20.9733 186.687 20.568C186.303 20.1413 185.641 19.928 184.703 19.928V19.288C185.407 19.288 185.94 19.1493 186.303 18.872C186.687 18.5733 186.964 18.2 187.135 17.752C187.305 17.304 187.423 16.8453 187.487 16.376C187.551 15.8853 187.615 15.448 187.679 15.064H188.415ZM188.895 1.368C189.321 1.09066 189.705 0.994665 190.047 1.08C190.409 1.144 190.676 1.31467 190.847 1.592C191.017 1.86933 191.06 2.17867 190.975 2.52C190.889 2.84 190.623 3.14933 190.175 3.448C189.727 3.72533 189.204 3.98133 188.607 4.216C188.031 4.42933 187.348 4.696 186.559 5.016C185.791 5.31467 184.852 5.74133 183.743 6.296L183.519 5.88C184.5 5.13333 185.3 4.48267 185.919 3.928C186.559 3.352 187.103 2.85067 187.551 2.424C187.999 1.99733 188.447 1.64533 188.895 1.368Z" fill="#F3CFB4"/>
</svg>
