<svg width="202" height="38" viewBox="0 0 202 38" fill="none" xmlns="http://www.w3.org/2000/svg">
<path d="M0.549644 37.016V36.376C1.40298 36.2907 2.12831 36.0347 2.72564 35.608C3.32298 35.2027 3.78164 34.4987 4.10164 33.496C4.42164 32.4933 4.58164 31.0853 4.58164 29.272V11.736C4.58164 10.9467 4.51764 10.3707 4.38964 10.008C4.28298 9.624 4.05898 9.368 3.71764 9.24C3.37631 9.09067 2.86431 9.00533 2.18164 8.984V8.344C2.71498 8.36533 3.40831 8.38667 4.26164 8.408C5.13631 8.42933 6.05364 8.44 7.01364 8.44C7.97364 8.44 8.90164 8.42933 9.79764 8.408C10.715 8.38667 11.4723 8.36533 12.0696 8.344V8.984C11.4083 9.00533 10.8963 9.09067 10.5336 9.24C10.1923 9.368 9.95764 9.624 9.82965 10.008C9.72298 10.3707 9.66965 10.9467 9.66965 11.736V23.448C9.66965 24.3227 9.66965 25.272 9.66965 26.296C9.66965 27.2987 9.62698 28.28 9.54165 29.24C9.47765 30.2 9.33898 31.0533 9.12564 31.8C8.69898 33.272 7.77098 34.5093 6.34164 35.512C4.93364 36.5147 3.00298 37.016 0.549644 37.016ZM29.3691 8.28L37.1451 28.312C37.4438 29.08 37.7745 29.6133 38.1371 29.912C38.5211 30.1893 38.8625 30.3387 39.1611 30.36V31C38.5211 30.9573 37.7638 30.936 36.8891 30.936C36.0358 30.9147 35.1718 30.904 34.2971 30.904C33.3158 30.904 32.3878 30.9147 31.5131 30.936C30.6385 30.936 29.9451 30.9573 29.4331 31V30.36C30.5211 30.3173 31.2038 30.136 31.4811 29.816C31.7798 29.4747 31.7158 28.76 31.2891 27.672L25.8491 12.792L26.4251 11.96L21.5611 24.632C21.0918 25.8053 20.8038 26.7653 20.6971 27.512C20.6118 28.2587 20.6651 28.8347 20.8571 29.24C21.0705 29.6453 21.4011 29.9333 21.8491 30.104C22.3185 30.2533 22.8731 30.3387 23.5131 30.36V31C22.8091 30.9573 22.1371 30.936 21.4971 30.936C20.8571 30.9147 20.2065 30.904 19.5451 30.904C19.0758 30.904 18.6278 30.9147 18.2011 30.936C17.7958 30.936 17.4331 30.9573 17.1131 31V30.36C17.5611 30.2747 18.0198 29.9867 18.4891 29.496C18.9585 29.0053 19.4171 28.1733 19.8651 27L27.1611 8.28C27.5025 8.30133 27.8651 8.312 28.2491 8.312C28.6545 8.312 29.0278 8.30133 29.3691 8.28ZM31.6091 21.784V22.424H22.0731L22.3931 21.784H31.6091ZM63.3779 8.344V8.984C62.9086 9.15467 62.4072 9.528 61.8739 10.104C61.3619 10.68 60.8819 11.576 60.4339 12.792L53.6819 31.064C53.5112 31.0427 53.3299 31.032 53.1379 31.032C52.9459 31.032 52.7539 31.032 52.5619 31.032C52.3912 31.032 52.2099 31.032 52.0179 31.032C51.8259 31.032 51.6446 31.0427 51.4739 31.064L43.3139 11.032C43.0152 10.264 42.6846 9.74133 42.3219 9.464C41.9592 9.16533 41.6179 9.00533 41.2979 8.984V8.344C41.9379 8.36533 42.6846 8.38667 43.5379 8.408C44.4126 8.42933 45.2872 8.44 46.1619 8.44C47.1432 8.44 48.0606 8.42933 48.9139 8.408C49.7886 8.38667 50.4926 8.36533 51.0259 8.344V8.984C50.3432 9.00533 49.8099 9.09067 49.4259 9.24C49.0419 9.368 48.8286 9.624 48.7859 10.008C48.7432 10.3707 48.8712 10.9253 49.1699 11.672L54.9939 26.488L54.3219 27.288L58.7379 15.384C59.3139 13.784 59.6126 12.5253 59.6339 11.608C59.6552 10.6907 59.4312 10.0293 58.9619 9.624C58.4926 9.21867 57.8206 9.00533 56.9459 8.984V8.344C57.6712 8.36533 58.3539 8.38667 58.9939 8.408C59.6339 8.42933 60.2846 8.44 60.9459 8.44C61.4152 8.44 61.8526 8.42933 62.2579 8.408C62.6846 8.38667 63.0579 8.36533 63.3779 8.344ZM77.5779 8.28L85.3539 28.312C85.6525 29.08 85.9832 29.6133 86.3459 29.912C86.7299 30.1893 87.0712 30.3387 87.3699 30.36V31C86.7299 30.9573 85.9725 30.936 85.0979 30.936C84.2445 30.9147 83.3805 30.904 82.5059 30.904C81.5245 30.904 80.5965 30.9147 79.7219 30.936C78.8472 30.936 78.1539 30.9573 77.6419 31V30.36C78.7299 30.3173 79.4125 30.136 79.6899 29.816C79.9885 29.4747 79.9245 28.76 79.4979 27.672L74.0579 12.792L74.6339 11.96L69.7699 24.632C69.3005 25.8053 69.0125 26.7653 68.9059 27.512C68.8205 28.2587 68.8739 28.8347 69.0659 29.24C69.2792 29.6453 69.6099 29.9333 70.0579 30.104C70.5272 30.2533 71.0819 30.3387 71.7219 30.36V31C71.0179 30.9573 70.3459 30.936 69.7059 30.936C69.0659 30.9147 68.4152 30.904 67.7539 30.904C67.2845 30.904 66.8365 30.9147 66.4099 30.936C66.0045 30.936 65.6419 30.9573 65.3219 31V30.36C65.7699 30.2747 66.2285 29.9867 66.6979 29.496C67.1672 29.0053 67.6259 28.1733 68.0739 27L75.3699 8.28C75.7112 8.30133 76.0739 8.312 76.4579 8.312C76.8632 8.312 77.2365 8.30133 77.5779 8.28ZM79.8179 21.784V22.424H70.2819L70.6019 21.784H79.8179ZM117.558 7.896C118.966 7.896 120.118 8.10933 121.014 8.536C121.932 8.94133 122.742 9.42133 123.446 9.976C123.873 10.296 124.193 10.3387 124.406 10.104C124.641 9.848 124.801 9.26133 124.886 8.344H125.622C125.58 9.176 125.548 10.1893 125.526 11.384C125.505 12.5573 125.494 14.1253 125.494 16.088H124.758C124.652 15.1067 124.513 14.2747 124.342 13.592C124.172 12.888 123.937 12.2693 123.638 11.736C123.34 11.2027 122.913 10.7227 122.358 10.296C121.825 9.76267 121.206 9.368 120.502 9.112C119.798 8.856 119.062 8.728 118.294 8.728C117.142 8.728 116.161 9.03733 115.35 9.656C114.54 10.2533 113.878 11.0747 113.366 12.12C112.876 13.1653 112.513 14.3493 112.278 15.672C112.044 16.9733 111.926 18.328 111.926 19.736C111.926 21.1653 112.044 22.5413 112.278 23.864C112.534 25.1653 112.918 26.328 113.43 27.352C113.964 28.376 114.646 29.1867 115.478 29.784C116.31 30.3813 117.292 30.68 118.422 30.68C119.126 30.68 119.83 30.552 120.534 30.296C121.26 30.0187 121.878 29.624 122.39 29.112C123.222 28.472 123.788 27.6827 124.086 26.744C124.385 25.784 124.609 24.5147 124.758 22.936H125.494C125.494 24.9627 125.505 26.6053 125.526 27.864C125.548 29.1013 125.58 30.1467 125.622 31H124.886C124.801 30.0827 124.652 29.5067 124.438 29.272C124.246 29.0373 123.916 29.0693 123.446 29.368C122.657 29.9227 121.814 30.4133 120.918 30.84C120.044 31.2453 118.913 31.448 117.526 31.448C115.265 31.448 113.281 30.9893 111.574 30.072C109.889 29.1547 108.577 27.832 107.638 26.104C106.7 24.376 106.23 22.296 106.23 19.864C106.23 17.4747 106.71 15.384 107.67 13.592C108.652 11.8 109.985 10.4027 111.67 9.4C113.377 8.39733 115.34 7.896 117.558 7.896ZM144.313 8.28L152.089 28.312C152.388 29.08 152.718 29.6133 153.081 29.912C153.465 30.1893 153.806 30.3387 154.105 30.36V31C153.465 30.9573 152.708 30.936 151.833 30.936C150.98 30.9147 150.116 30.904 149.241 30.904C148.26 30.904 147.332 30.9147 146.457 30.936C145.582 30.936 144.889 30.9573 144.377 31V30.36C145.465 30.3173 146.148 30.136 146.425 29.816C146.724 29.4747 146.66 28.76 146.233 27.672L140.793 12.792L141.369 11.96L136.505 24.632C136.036 25.8053 135.748 26.7653 135.641 27.512C135.556 28.2587 135.609 28.8347 135.801 29.24C136.014 29.6453 136.345 29.9333 136.793 30.104C137.262 30.2533 137.817 30.3387 138.457 30.36V31C137.753 30.9573 137.081 30.936 136.441 30.936C135.801 30.9147 135.15 30.904 134.489 30.904C134.02 30.904 133.572 30.9147 133.145 30.936C132.74 30.936 132.377 30.9573 132.057 31V30.36C132.505 30.2747 132.964 29.9867 133.433 29.496C133.902 29.0053 134.361 28.1733 134.809 27L142.105 8.28C142.446 8.30133 142.809 8.312 143.193 8.312C143.598 8.312 143.972 8.30133 144.313 8.28ZM146.553 21.784V22.424H137.017L137.337 21.784H146.553ZM176.584 8.344C176.498 9.304 176.434 10.232 176.392 11.128C176.37 12.024 176.36 12.7173 176.36 13.208C176.36 13.6773 176.37 14.1253 176.392 14.552C176.413 14.9787 176.434 15.3413 176.456 15.64H175.72C175.442 13.976 175.058 12.6747 174.568 11.736C174.077 10.776 173.469 10.0933 172.744 9.688C172.04 9.28267 171.197 9.08 170.216 9.08H169.16C168.541 9.08 168.072 9.13333 167.752 9.24C167.432 9.34667 167.218 9.56 167.112 9.88C167.005 10.2 166.952 10.6907 166.952 11.352V27.416C166.952 28.248 167.037 28.8667 167.208 29.272C167.378 29.6773 167.709 29.944 168.2 30.072C168.69 30.2 169.416 30.2747 170.376 30.296V31C169.714 30.9787 168.861 30.9573 167.816 30.936C166.77 30.9147 165.672 30.904 164.52 30.904C163.602 30.904 162.706 30.9147 161.832 30.936C160.957 30.9573 160.168 30.9787 159.464 31V30.36C160.146 30.3173 160.658 30.232 161 30.104C161.341 29.976 161.565 29.72 161.672 29.336C161.8 28.952 161.864 28.376 161.864 27.608V11.736C161.864 10.9467 161.8 10.3707 161.672 10.008C161.565 9.624 161.33 9.368 160.968 9.24C160.626 9.09067 160.125 9.00533 159.464 8.984V8.344C160.338 8.36533 161.266 8.38667 162.248 8.408C163.229 8.408 164.2 8.41867 165.16 8.44C166.12 8.44 167.016 8.44 167.848 8.44C168.68 8.44 169.362 8.44 169.896 8.44C170.877 8.44 171.986 8.44 173.224 8.44C174.482 8.41867 175.602 8.38667 176.584 8.344ZM171.816 19.416C171.816 19.416 171.816 19.5227 171.816 19.736C171.816 19.9493 171.816 20.056 171.816 20.056H165.992C165.992 20.056 165.992 19.9493 165.992 19.736C165.992 19.5227 165.992 19.416 165.992 19.416H171.816ZM172.616 15.192C172.53 16.408 172.488 17.336 172.488 17.976C172.509 18.616 172.52 19.2027 172.52 19.736C172.52 20.2693 172.53 20.856 172.552 21.496C172.573 22.136 172.626 23.064 172.712 24.28H171.976C171.848 23.5333 171.645 22.84 171.368 22.2C171.09 21.56 170.685 21.048 170.152 20.664C169.618 20.2587 168.925 20.056 168.072 20.056V19.416C168.712 19.416 169.245 19.288 169.672 19.032C170.12 18.7547 170.493 18.4027 170.792 17.976C171.09 17.528 171.325 17.0587 171.496 16.568C171.666 16.0773 171.794 15.6187 171.88 15.192H172.616ZM200.641 8.344C200.556 9.28267 200.492 10.1893 200.449 11.064C200.428 11.9387 200.417 12.6107 200.417 13.08C200.417 13.5067 200.428 13.912 200.449 14.296C200.47 14.68 200.492 15 200.513 15.256H199.777C199.564 13.6987 199.233 12.472 198.785 11.576C198.337 10.6587 197.75 10.0187 197.025 9.656C196.321 9.272 195.489 9.08 194.529 9.08H193.217C192.598 9.08 192.129 9.13333 191.809 9.24C191.489 9.34667 191.276 9.56 191.169 9.88C191.062 10.2 191.009 10.6907 191.009 11.352V27.992C191.009 28.6533 191.062 29.144 191.169 29.464C191.276 29.784 191.489 29.9973 191.809 30.104C192.129 30.2107 192.598 30.264 193.217 30.264H194.785C195.745 30.264 196.588 30.0613 197.313 29.656C198.06 29.2293 198.689 28.5147 199.201 27.512C199.734 26.5093 200.14 25.1547 200.417 23.448H201.153C201.089 24.1307 201.057 25.0267 201.057 26.136C201.057 26.6267 201.068 27.32 201.089 28.216C201.11 29.112 201.174 30.04 201.281 31C200.193 30.9573 198.966 30.936 197.601 30.936C196.236 30.9147 195.02 30.904 193.953 30.904C193.42 30.904 192.737 30.904 191.905 30.904C191.073 30.904 190.177 30.9147 189.217 30.936C188.257 30.936 187.286 30.9467 186.305 30.968C185.324 30.968 184.396 30.9787 183.521 31V30.36C184.204 30.3173 184.716 30.232 185.057 30.104C185.398 29.976 185.622 29.72 185.729 29.336C185.857 28.952 185.921 28.376 185.921 27.608V11.736C185.921 10.9467 185.857 10.3707 185.729 10.008C185.622 9.624 185.388 9.368 185.025 9.24C184.684 9.09067 184.182 9.00533 183.521 8.984V8.344C184.396 8.36533 185.324 8.38667 186.305 8.408C187.286 8.408 188.257 8.41867 189.217 8.44C190.177 8.44 191.073 8.44 191.905 8.44C192.737 8.44 193.42 8.44 193.953 8.44C194.934 8.44 196.044 8.44 197.281 8.44C198.54 8.41867 199.66 8.38667 200.641 8.344ZM195.649 19.288C195.649 19.288 195.649 19.3947 195.649 19.608C195.649 19.8213 195.649 19.928 195.649 19.928H190.049C190.049 19.928 190.049 19.8213 190.049 19.608C190.049 19.3947 190.049 19.288 190.049 19.288H195.649ZM196.577 15.064C196.492 16.28 196.449 17.208 196.449 17.848C196.47 18.488 196.481 19.0747 196.481 19.608C196.481 20.1413 196.492 20.728 196.513 21.368C196.534 22.008 196.588 22.936 196.673 24.152H195.937C195.83 23.4053 195.628 22.712 195.329 22.072C195.052 21.432 194.646 20.92 194.113 20.536C193.58 20.1307 192.886 19.928 192.033 19.928V19.288C192.673 19.288 193.217 19.16 193.665 18.904C194.113 18.6267 194.476 18.2747 194.753 17.848C195.052 17.4 195.286 16.9307 195.457 16.44C195.628 15.9493 195.756 15.4907 195.841 15.064H196.577ZM195.329 1.112C195.777 0.855999 196.257 0.791999 196.769 0.919998C197.302 1.02666 197.686 1.32533 197.921 1.816C198.134 2.22133 198.156 2.648 197.985 3.096C197.836 3.544 197.516 3.90667 197.025 4.184C196.556 4.44 196.033 4.64267 195.457 4.792C194.881 4.92 194.188 5.09067 193.377 5.304C192.566 5.51733 191.564 5.848 190.369 6.296L190.145 5.912C191.169 5.08 191.958 4.35467 192.513 3.736C193.089 3.11733 193.58 2.59467 193.985 2.168C194.39 1.72 194.838 1.368 195.329 1.112Z" fill="#121212"/>
</svg>
