<svg width="69" height="41" viewBox="0 0 69 41" fill="none" xmlns="http://www.w3.org/2000/svg">
<path d="M19.5938 23.3214C19.5938 24.0906 19.3226 24.7465 18.7802 25.2889C18.2378 25.8313 17.5919 26.1025 16.8424 26.1025C16.0731 26.1025 15.4173 25.8313 14.8749 25.2889C14.3325 24.7465 14.0613 24.0906 14.0613 23.3214C14.0613 22.5719 14.3325 21.926 14.8749 21.3835C15.4173 20.8411 16.0731 20.5699 16.8424 20.5699C17.5919 20.5699 18.2378 20.8411 18.7802 21.3835C19.3226 21.926 19.5938 22.5719 19.5938 23.3214ZM53.7359 23.2918C53.7359 24.0611 53.4647 24.7169 52.9222 25.2593C52.3798 25.8017 51.724 26.0729 50.9548 26.0729C50.1856 26.0729 49.5297 25.8017 48.9873 25.2593C48.4449 24.7169 48.1737 24.0611 48.1737 23.2918C48.1737 22.5226 48.4449 21.8717 48.9873 21.3392C49.5297 20.8066 50.1856 20.5404 50.9548 20.5404C51.724 20.5404 52.3798 20.8066 52.9222 21.3392C53.4647 21.8717 53.7359 22.5226 53.7359 23.2918ZM22.9666 23.3214C22.9666 21.7632 22.4094 20.422 21.295 19.2977C20.1806 18.1735 18.8345 17.6114 17.2566 17.6114C15.6787 17.6114 14.3325 18.1686 13.2181 19.283C12.1037 20.3974 11.5465 21.7435 11.5465 23.3214C11.5465 24.8993 12.1037 26.2455 13.2181 27.3599C14.3325 28.4743 15.6787 29.0315 17.2566 29.0315C18.8345 29.0315 20.1806 28.4743 21.295 27.3599C22.4094 26.2455 22.9666 24.8993 22.9666 23.3214ZM57.0791 23.2918C57.0791 21.7139 56.5219 20.3678 55.4075 19.2534C54.2931 18.139 52.9469 17.5818 51.369 17.5818C49.8108 17.5818 48.4696 18.139 47.3453 19.2534C46.2211 20.3678 45.6589 21.7139 45.6589 23.2918C45.6589 24.8697 46.2161 26.2159 47.3305 27.3303C48.4449 28.4447 49.7911 29.0019 51.369 29.0019C52.9469 29.0019 54.2931 28.4447 55.4075 27.3303C56.5219 26.2159 57.0791 24.8697 57.0791 23.2918ZM25.4814 23.3214C25.4814 25.6094 24.6777 27.5571 23.0702 29.1646C21.4627 30.7721 19.5248 31.5759 17.2566 31.5759C14.9686 31.5759 13.0209 30.7672 11.4134 29.1498C9.80588 27.5325 9.00213 25.5897 9.00213 23.3214C9.00213 21.0532 9.81081 19.1153 11.4282 17.5078C13.0455 15.9003 14.9883 15.0966 17.2566 15.0966C19.5248 15.0966 21.4627 15.9003 23.0702 17.5078C24.6777 19.1153 25.4814 21.0532 25.4814 23.3214ZM59.6234 23.2918C59.6234 25.5601 58.8197 27.4979 57.2122 29.1054C55.6047 30.7129 53.657 31.5167 51.369 31.5167C49.1007 31.5167 47.1629 30.7129 45.5554 29.1054C43.9479 27.4979 43.1441 25.5601 43.1441 23.2918C43.1441 21.0236 43.9479 19.0857 45.5554 17.4782C47.1629 15.8707 49.1007 15.067 51.369 15.067C53.657 15.067 55.6047 15.8707 57.2122 17.4782C58.8197 19.0857 59.6234 21.0236 59.6234 23.2918ZM31.1027 23.3806C31.1027 19.6133 29.7664 16.3934 27.0938 13.7208C24.4213 11.0482 21.2013 9.71195 17.4341 9.71195C14.9686 9.71195 12.6905 10.3234 10.5998 11.5463C8.50904 12.7691 6.85223 14.4309 5.62935 16.5315C4.40647 18.6321 3.79503 20.9151 3.79503 23.3806C3.79503 25.8461 4.40647 28.1291 5.62935 30.2297C6.85223 32.3303 8.50904 33.992 10.5998 35.2149C12.6905 36.4378 14.9686 37.0492 17.4341 37.0492C21.2013 37.0492 24.4213 35.7129 27.0938 33.0404C29.7664 30.3678 31.1027 27.1478 31.1027 23.3806ZM50.866 6.42793C45.8562 4.23858 40.3729 3.1439 34.4163 3.1439C28.1244 3.1439 22.4735 4.22872 17.4637 6.39834C19.7714 6.39834 21.9706 6.84706 24.0613 7.74449C26.152 8.64193 27.9518 9.85002 29.4607 11.3688C30.9696 12.8875 32.1727 14.6922 33.0702 16.783C33.9676 18.8737 34.4163 21.0729 34.4163 23.3806C34.4163 21.1123 34.8453 18.9477 35.7033 16.8865C36.5613 14.8254 37.725 13.0453 39.1944 11.5463C40.6639 10.0473 42.4144 8.83424 44.4459 7.90722C46.4775 6.98019 48.6175 6.4871 50.866 6.42793ZM65.0376 23.3806C65.0376 19.6133 63.7063 16.3934 61.0435 13.7208C58.3808 11.0482 55.1658 9.71195 51.3986 9.71195C47.6313 9.71195 44.4114 11.0482 41.7388 13.7208C39.0662 16.3934 37.7299 19.6133 37.7299 23.3806C37.7299 27.1478 39.0662 30.3678 41.7388 33.0404C44.4114 35.7129 47.6313 37.0492 51.3986 37.0492C55.1658 37.0492 58.3808 35.7129 61.0435 33.0404C63.7063 30.3678 65.0376 27.1478 65.0376 23.3806ZM57.1678 6.63503H68.4992C67.6313 7.64094 66.8917 8.77014 66.2802 10.0226C65.6688 11.2751 65.2743 12.4043 65.0968 13.4102C67.2664 16.3885 68.3512 19.712 68.3512 23.3806C68.3512 26.4575 67.5919 29.2977 66.0731 31.9013C64.5544 34.5049 62.4933 36.5611 59.8897 38.0699C57.2862 39.5788 54.4558 40.3333 51.3986 40.3333C48.7753 40.3333 46.3197 39.781 44.0317 38.6764C41.7437 37.5719 39.8108 36.0433 38.2329 34.0906C37.3059 35.1952 36.0337 36.9605 34.4163 39.3865C34.1994 38.9526 33.6718 38.139 32.8335 36.9457C31.9952 35.7524 31.2605 34.7908 30.6294 34.0611C29.0514 36.0137 27.1136 37.5473 24.8157 38.6617C22.5179 39.7761 20.0574 40.3333 17.4341 40.3333C14.3769 40.3333 11.5465 39.5788 8.94296 38.0699C6.33941 36.5611 4.27827 34.5049 2.75953 31.9013C1.24079 29.2977 0.481425 26.4575 0.481425 23.3806C0.481425 19.712 1.56624 16.3885 3.73586 13.4102C3.55835 12.4043 3.16387 11.2751 2.55243 10.0226C1.94099 8.77014 1.20135 7.64094 0.333496 6.63503H11.1323C14.0712 4.66264 17.5722 3.11925 21.6353 2.00485C25.6984 0.890451 29.9587 0.333252 34.4163 0.333252C38.8345 0.333252 42.9864 0.88552 46.872 1.99006C50.7576 3.09459 54.1895 4.64292 57.1678 6.63503Z" fill="#222222"/>
</svg>
